#!OML:ASF I:\Actors\actors\Patient Classification 1\Patient 1\Session 1\Subject1.ASF
:FULLY-SPECIFIED
:DEGREES
696
root 0.65088 17.5341 9.40836 7.58697 -2.33643 -8.73836
lowerback 2.42905 0.966327 8.143
upperback -9.85612 2.10224 0.931999
thorax -11.8022 0.30216 -3.78936
lowerneck -15.6965 -4.70037 -2.87723
upperneck 40.0811 -8.91659 5.59782
head 18.0007 -3.31008 1.34687
rclavicle 6.16232e-015 -3.97569e-016
rhumerus -33.0205 59.5635 -97.9709
rradius 130.541
rwrist -8.65705
rhand 2.34466 -31.2252
rfingers 7.12502
rthumb 27.8342 300.816
lclavicle 6.16232e-015 -3.97569e-016
lhumerus -44.7433 -67.577 99.0684
lradius 119.657
lwrist 41.9419
lhand -23.8677 -31.6416
lfingers 7.12502
lthumb 2.6051 -1.67773
rfemur -1.89836 23.543 26.9024
rtibia 2.40205
rfoot -13.5246 -26.5293
rtoes 9.71287
lfemur 5.69095 -35.612 -12.3156
ltibia -3.06296
lfoot -14.0281 44.4212
ltoes 1.09034
697
root 0.655876 17.534 9.41348 7.61335 -2.31238 -8.6733
lowerback 2.58645 0.921508 8.15935
upperback -9.95954 2.06184 0.891079
thorax -12.0249 0.265969 -3.84342
lowerneck -15.4804 -4.71634 -2.60299
upperneck 39.5031 -8.90079 5.419
head 17.5747 -3.30708 1.21369
rclavicle 1.39149e-015 -2.42517e-014
rhumerus -32.6096 59.0727 -97.495
rradius 130.783
rwrist -8.41219
rhand 4.51631 -30.1169
rfingers 7.12502
rthumb 29.9085 302.279
lclavicle 1.39149e-015 -2.42517e-014
lhumerus -44.6801 -67.8215 98.6886
lradius 119.888
lwrist 40.7915
lhand -23.9923 -31.8961
lfingers 7.12502
lthumb 2.48478 -1.93081
rfemur -1.9321 23.4716 26.7992
rtibia 2.43741
rfoot -13.5375 -26.4857
rtoes 9.95662
lfemur 5.72601 -35.8254 -12.4782
ltibia -3.05186
lfoot -14.2744 44.6185
ltoes 1.39329
698
root 0.659686 17.5338 9.41849 7.64413 -2.27656 -8.7116
lowerback 2.73611 0.860195 8.27307
upperback -10.0622 2.01027 0.883118
thorax -12.2456 0.216952 -3.91374
lowerneck -15.3507 -4.67233 -2.27271
upperneck 39.1133 -8.81007 5.19325
head 17.2754 -3.26593 1.068
rclavicle 1.98785e-015 -9.54166e-015
rhumerus -32.6841 57.8362 -97.5015
rradius 130.855
rwrist -7.54706
rhand 7.75917 -28.2105
rfingers 7.12502
rthumb 32.998 304.789
lclavicle 1.98785e-015 -9.54166e-015
lhumerus -44.4375 -67.9789 98.1433
lradius 120.211
lwrist 40.7025
lhand -23.5179 -32.0784
lfingers 7.12502
lthumb 2.94292 -2.11899
rfemur -1.99894 23.3956 26.8235
rtibia 2.52436
rfoot -13.4423 -26.4666
rtoes 9.86458
lfemur 5.74062 -35.9561 -12.4673
ltibia -3.07706
lfoot -14.1562 44.7551
ltoes 1.15926
699
root 0.663518 17.5334 9.42329 7.65998 -2.24017 -8.75863
lowerback 2.85883 0.826791 8.5038
upperback -10.1326 1.99461 0.792974
thorax -12.4048 0.171736 -4.1427
lowerneck -15.184 -4.79709 -2.58377
upperneck 38.4886 -8.90541 5.36623
head 16.9271 -3.34872 1.17679
rclavicle 7.05686e-015 -3.29983e-014
rhumerus -30.241 58.7469 -95.0218
rradius 131.037
rwrist -7.39309
rhand 9.23418 -26.8281
rfingers 7.12502
rthumb 34.3996 306.478
lclavicle 7.05686e-015 -3.29983e-014
lhumerus -44.0695 -68.2275 97.4625
lradius 120.555
lwrist 40.9008
lhand -22.7684 -32.034
lfingers 7.12502
lthumb 3.66671 -2.08575
rfemur -2.02456 23.3782 26.8717
rtibia 2.56176
rfoot -13.3275 -26.515
rtoes 9.49379
lfemur 5.79915 -36.1218 -12.4667
ltibia -3.12949
lfoot -14.0928 44.9122
ltoes 1.09787
700
root 0.66695 17.5332 9.42661 7.68165 -2.25661 -8.71677
lowerback 2.96879 0.81965 8.48738
upperback -10.1951 1.99671 0.768354
thorax -12.5465 0.164433 -4.16433
lowerneck -15.2513 -4.91665 -3.32338
upperneck 38.267 -9.09924 6.04088
head 16.9388 -3.44676 1.56522
rclavicle 2.68359e-015 -1.15295e-014
rhumerus -28.6774 58.5357 -93.2381
rradius 131.04
rwrist -7.25282
rhand 11.9308 -24.6578
rfingers 7.12502
rthumb 36.9552 309.266
lclavicle 2.68359e-015 -1.15295e-014
lhumerus -43.7916 -68.4186 96.984
lradius 120.853
lwrist 40.9025
lhand -21.9933 -31.3053
lfingers 7.12502
lthumb 4.41525 -1.37137
rfemur -2.06062 23.4153 26.8049
rtibia 2.59107
rfoot -13.3745 -26.5381
rtoes 9.55012
lfemur 5.90524 -36.414 -12.6195
ltibia -3.20078
lfoot -14.2369 45.2269
ltoes 1.29636
701
root 0.670472 17.5331 9.43049 7.70904 -2.31509 -8.66593
lowerback 3.09652 0.796401 8.35531
upperback -10.2794 1.97715 0.823233
thorax -12.731 0.160995 -4.03192
lowerneck -14.6778 -4.79267 -2.87436
upperneck 37.1969 -8.77969 5.64444
head 16.146 -3.34489 1.36826
rclavicle -5.96354e-015 5.1684e-015
rhumerus -28.3744 57.4001 -92.5513
rradius 130.851
rwrist -7.14235
rhand 15.6524 -21.8901
rfingers 7.12502
rthumb 40.4654 313.026
lclavicle -5.96354e-015 5.1684e-015
lhumerus -43.6393 -68.3941 96.6449
lradius 121.118
lwrist 41.1144
lhand -20.9937 -30.093
lfingers 7.12502
lthumb 5.38043 -0.181298
rfemur -2.12908 23.3853 26.7128
rtibia 2.6612
rfoot -13.4264 -26.4577
rtoes 9.62471
lfemur 6.08632 -36.8146 -12.8442
ltibia -3.31378
lfoot -14.4489 45.6781
ltoes 1.51782
702
root 0.674634 17.5323 9.43566 7.72339 -2.38277 -8.62448
lowerback 3.23725 0.745779 8.35274
upperback -10.3715 1.92856 0.822782
thorax -12.9362 0.125834 -4.02868
lowerneck -14.5836 -4.79422 -2.8645
upperneck 36.8472 -8.76955 5.68548
head 15.9455 -3.34534 1.38311
rclavicle 1.59028e-015 1.98785e-015
rhumerus -26.7812 57.5089 -90.7027
rradius 130.668
rwrist -7.52269
rhand 17.9369 -19.8994
rfingers 7.12502
rthumb 42.6085 315.718
lclavicle 1.59028e-015 1.98785e-015
lhumerus -43.3007 -68.2357 96.0291
lradius 121.319
lwrist 42.2323
lhand -19.6684 -28.6066
lfingers 7.12502
lthumb 6.65993 1.26872
rfemur -2.17052 23.2803 26.6339
rtibia 2.71344
rfoot -13.3042 -26.323
rtoes 9.14718
lfemur 6.35639 -37.3095 -13.131
ltibia -3.45275
lfoot -14.8219 46.2127
ltoes 1.92384
703
root 0.678379 17.5309 9.44084 7.73512 -2.48118 -8.58227
lowerback 3.3587 0.716935 8.3348
upperback -10.4625 1.90689 0.832425
thorax -13.1249 0.106719 -4.00863
lowerneck -14.4313 -4.73281 -2.4722
upperneck 36.4562 -8.58689 5.24164
head 15.6449 -3.2895 1.15646
rclavicle 1.98785e-015 -7.95139e-016
rhumerus -25.1583 57.6821 -88.8155
rradius 130.431
rwrist -7.77448
rhand 19.4924 -18.3738
rfingers 7.12502
rthumb 44.0619 317.766
lclavicle 1.98785e-015 -7.95139e-016
lhumerus -42.8202 -68.0751 95.3548
lradius 121.435
lwrist 44.3125
lhand -18.1026 -26.9226
lfingers 7.12502
lthumb 8.17136 2.89935
rfemur -2.17007 23.2654 26.5588
rtibia 2.70864
rfoot -13.2387 -26.2325
rtoes 8.87339
lfemur 6.6474 -37.7987 -13.4284
ltibia -3.59199
lfoot -15.2915 46.7454
ltoes 2.4424
704
root 0.68239 17.5297 9.44516 7.76475 -2.59952 -8.56602
lowerback 3.45433 0.729188 8.32803
upperback -10.556 1.94094 0.853249
thorax -13.2937 0.114917 -3.98944
lowerneck -14.2765 -4.78047 -2.47843
upperneck 36.0773 -8.52993 5.00568
head 15.4 -3.31307 1.06782
rclavicle -1.38155e-014 6.04305e-014
rhumerus -23.532 57.9054 -86.8264
rradius 130.22
rwrist -7.73951
rhand 20.3573 -17.3585
rfingers 7.12502
rthumb 44.8678 319.09
lclavicle -1.38155e-014 6.04305e-014
lhumerus -42.5579 -68.0449 94.9329
lradius 121.521
lwrist 46.7435
lhand -16.5612 -25.1694
lfingers 7.12502
lthumb 9.6587 4.58918
rfemur -2.16587 23.3451 26.5074
rtibia 2.66375
rfoot -13.2539 -26.1981
rtoes 8.89327
lfemur 6.91206 -38.2322 -13.6643
ltibia -3.74098
lfoot -15.7915 47.2252
ltoes 3.1102
705
root 0.686959 17.5289 9.44855 7.80401 -2.71258 -8.59983
lowerback 3.53733 0.747124 8.38112
upperback -10.6514 1.98925 0.886668
thorax -13.4559 0.12478 -3.99133
lowerneck -14.0157 -4.77596 -2.54719
upperneck 35.6363 -8.44887 4.97514
head 15.1204 -3.30967 1.08451
rclavicle -5.56597e-015 -5.1684e-015
rhumerus -21.8492 58.1899 -84.8027
rradius 130.066
rwrist -7.69276
rhand 21.2302 -16.9455
rfingers 7.12502
rthumb 45.6794 319.828
lclavicle -5.56597e-015 -5.1684e-015
lhumerus -42.2687 -68.0017 94.4559
lradius 121.56
lwrist 49.4687
lhand -14.7947 -23.5627
lfingers 7.12502
lthumb 11.3628 6.10947
rfemur -2.1732 23.4714 26.5169
rtibia 2.62555
rfoot -13.2228 -26.2017
rtoes 8.91494
lfemur 7.17808 -38.6445 -13.8289
ltibia -3.93237
lfoot -16.2084 47.707
ltoes 3.59424
706
root 0.691484 17.5277 9.45178 7.83637 -2.80639 -8.66776
lowerback 3.62427 0.760837 8.47241
upperback -10.7437 2.03702 0.925142
thorax -13.6179 0.130658 -4.00891
lowerneck -13.9189 -4.73229 -2.58809
upperneck 35.3356 -8.33217 4.95052
head 14.9472 -3.27817 1.1019
rclavicle 2.51463e-014 -3.89618e-014
rhumerus -20.1763 58.4563 -82.889
rradius 129.963
rwrist -8.10366
rhand 22.1833 -16.9545
rfingers 7.12502
rthumb 46.5633 320.189
lclavicle 2.51463e-014 -3.89618e-014
lhumerus -41.7015 -67.9061 93.7363
lradius 121.489
lwrist 52.3804
lhand -12.4822 -22.1571
lfingers 7.12502
lthumb 13.5923 7.37916
rfemur -2.18831 23.5785 26.573
rtibia 2.6081
rfoot -13.1529 -26.2094
rtoes 8.89485
lfemur 7.41838 -38.9691 -13.9194
ltibia -4.12693
lfoot -16.5694 48.0958
ltoes 4.07566
707
root 0.695677 17.5269 9.45426 7.8757 -2.87797 -8.66643
lowerback 3.04452 0.774616 8.2212
upperback -10.4776 1.97352 1.146
thorax -12.9467 0.179138 -3.60075
lowerneck -14.029 -4.66114 -2.67365
upperneck 34.8256 -8.08373 4.78357
head 14.7105 -3.21343 1.08426
rclavicle -1.36167e-014 4.25399e-014
rhumerus -17.31 58.7337 -79.833
rradius 129.842
rwrist -8.95773
rhand 22.8559 -16.9726
rfingers 7.12502
rthumb 47.1857 320.443
lclavicle -1.36167e-014 4.25399e-014
lhumerus -39.6502 -67.7083 91.9412
lradius 121.274
lwrist 54.7845
lhand -10.6943 -20.8465
lfingers 7.12502
lthumb 15.3149 8.56644
rfemur -2.23493 23.5859 26.5333
rtibia 2.60261
rfoot -13.0551 -26.1676
rtoes 8.53564
lfemur 7.54604 -39.2078 -14.032
ltibia -4.22116
lfoot -16.9764 48.3501
ltoes 4.64538
708
root 0.699253 17.5272 9.45544 7.92701 -2.92663 -8.61984
lowerback 2.67935 0.77463 7.97554
upperback -10.3419 1.91986 1.31327
thorax -12.5683 0.208781 -3.26495
lowerneck -13.9888 -4.61026 -2.79388
upperneck 34.4004 -7.8903 4.67364
head 14.4915 -3.17025 1.09139
rclavicle -6.65929e-015 2.54444e-014
rhumerus -15.0332 58.9708 -77.3689
rradius 129.702
rwrist -9.5556
rhand 23.1182 -16.8966
rfingers 7.12502
rthumb 47.428 320.628
lclavicle -6.65929e-015 2.54444e-014
lhumerus -38.4433 -67.6631 90.9401
lradius 121.11
lwrist 56.7379
lhand -10.0076 -19.7751
lfingers 7.12502
lthumb 15.9763 9.5861
rfemur -2.2972 23.5781 26.4284
rtibia 2.60459
rfoot -13.1271 -26.1096
rtoes 8.70978
lfemur 7.5523 -39.3874 -14.1297
ltibia -4.22081
lfoot -17.3492 48.5104
ltoes 5.103
709
root 0.701695 17.5271 9.4561 7.96068 -2.94272 -8.63353
lowerback 2.42146 0.77808 7.90342
upperback -10.2484 1.89347 1.39883
thorax -12.3028 0.221836 -3.12228
lowerneck -13.8614 -4.56699 -2.77403
upperneck 33.971 -7.77638 4.62449
head 14.2553 -3.13626 1.08793
rclavicle 3.08116e-015 -1.59028e-015
rhumerus -13.1175 59.2096 -75.3365
rradius 129.518
rwrist -9.66097
rhand 23.2009 -16.6766
rfingers 7.12502
rthumb 47.5045 320.883
lclavicle 3.08116e-015 -1.59028e-015
lhumerus -37.4029 -67.7714 90.0577
lradius 121.024
lwrist 58.9219
lhand -9.73236 -18.9306
lfingers 7.12502
lthumb 16.2414 10.4091
rfemur -2.30331 23.6482 26.4188
rtibia 2.56179
rfoot -13.3207 -26.1448
rtoes 9.4468
lfemur 7.48962 -39.3859 -14.0832
ltibia -4.19691
lfoot -17.4945 48.5083
ltoes 5.41413
710
root 0.704003 17.5265 9.45609 7.98324 -2.96415 -8.64658
lowerback 2.70863 0.771936 8.04027
upperback -10.4269 1.93091 1.31715
thorax -12.6867 0.200894 -3.29862
lowerneck -13.6684 -4.52536 -2.5516
upperneck 33.789 -7.75975 4.60349
head 14.1166 -3.11184 1.04766
rclavicle 2.43511e-014 -3.10104e-014
rhumerus -12.4643 59.5887 -74.603
rradius 129.342
rwrist -9.57963
rhand 23.0095 -16.4884
rfingers 7.12502
rthumb 47.3276 320.991
lclavicle 2.43511e-014 -3.10104e-014
lhumerus -37.7632 -68.0381 90.287
lradius 121.102
lwrist 60.9434
lhand -9.66202 -18.5004
lfingers 7.12502
lthumb 16.3091 10.8337
rfemur -2.28506 23.7539 26.4215
rtibia 2.48727
rfoot -13.3762 -26.2173
rtoes 9.59405
lfemur 7.36176 -39.1513 -13.9769
ltibia -4.1526
lfoot -17.1418 48.3608
ltoes 4.86872
